<svg xmlns="http://www.w3.org/2000/svg" fill="none" viewBox="0 0 13 12" height="12" width="13">
  <path fill="white" d="M12.3736 8.03442C12.3766 8.32575 12.3921 8.6214 12.3364 8.90839C12.1502 9.86376 11.0257 10.5102 9.69377 10.4504C8.89232 10.415 8.32029 10.137 8.00938 9.59748C7.63663 8.94798 7.97526 8.23649 8.8132 7.87756C9.3262 7.65811 9.90153 7.58258 10.4686 7.49175C11.2458 7.36741 11.3284 7.2997 11.3197 6.71773C11.3028 5.58512 11.2806 4.45264 11.2611 3.32059C11.2607 3.28666 11.2602 3.25208 11.2571 3.21819C11.2316 2.9739 11.1162 2.91012 10.7875 2.96382C9.61872 3.1523 5.8856 3.75278 5.18643 3.86262C4.74867 3.93186 4.67144 4.00013 4.67407 4.33052C4.68782 6.09528 4.70779 7.8598 4.71532 9.62399C4.71643 9.84106 4.68742 10.063 4.62454 10.2752C4.37893 11.1026 3.59192 11.6184 2.41085 11.7506C1.76356 11.8227 1.16771 11.757 0.683634 11.4144C-0.170694 10.811 0.0034845 9.68673 1.01676 9.22371C1.53132 8.98825 2.11166 8.88958 2.69197 8.78963C2.8479 8.76258 3.00289 8.73105 3.15516 8.69572C3.49686 8.6156 3.67039 8.44359 3.67226 8.18294C3.67307 7.91076 3.67388 7.6386 3.67114 7.36647C3.64901 5.57247 3.626 3.77898 3.60387 1.98565C3.59733 1.4952 3.78504 1.32043 4.44069 1.2086C6.6548 0.831362 8.86814 0.454137 11.083 0.0788103C11.278 0.0461153 11.4765 0.0204143 11.6753 0.00879969C11.9513 -0.00640487 12.1578 0.100347 12.2217 0.296096C12.2633 0.422336 12.2784 0.555327 12.2802 0.685306C12.3013 2.0074 12.364 6.90674 12.3737 8.03433L12.3736 8.03442Z" clip-rule="evenodd" fill-rule="evenodd"></path>
</svg>
